# Blender v2.80 (sub 74) OBJ File: 'untitled.blend'
# www.blender.org
mtllib Armor_Piercing_Arrow.mtl
o Armor_Piercing_Arrow_Cube.032
v 0.000509 -0.000247 -0.011312
v 0.008795 -0.000304 -0.003277
v -0.007777 -0.000245 -0.003277
v 0.000509 -0.000245 0.004758
v 0.003484 0.844797 -0.003413
v 0.000638 0.036601 0.007207
v 0.000638 0.036597 -0.013773
v -0.009377 0.171302 -0.003304
v 0.011602 0.171228 -0.003304
v 0.002923 0.685551 0.007102
v 0.002923 0.685548 -0.013877
v -0.007566 0.685586 -0.003387
v 0.013413 0.685512 -0.003387
v 0.003042 0.719383 0.004579
v 0.003042 0.719381 -0.011364
v -0.005816 0.708023 -0.003391
v 0.011820 0.707961 -0.003391
v 0.003077 0.729172 0.007125
v 0.003077 0.729168 -0.013914
v -0.014908 0.727991 -0.003394
v 0.021053 0.727865 -0.003394
v 0.001073 0.160057 0.007187
v 0.001073 0.160054 -0.013792
v -0.007215 0.160077 -0.005504
v -0.007215 0.160078 -0.001102
v -0.007342 0.038497 -0.000781
v -0.007342 0.038496 -0.005786
v -0.009844 0.031431 -0.003282
v 0.009361 0.160019 -0.001102
v 0.009361 0.160019 -0.005504
v 0.008632 0.038440 -0.005786
v 0.008632 0.038441 -0.000781
v 0.011084 0.031358 -0.003282
v -0.006958 0.147448 -0.005804
v -0.006958 0.147449 -0.000798
v 0.009015 0.147392 -0.000798
v 0.009015 0.147392 -0.005804
v -0.016519 0.160104 -0.001883
v -0.030152 0.030316 -0.004426
v 0.018666 0.159980 -0.004722
v 0.031385 0.030099 -0.002138
v -0.029792 0.133095 -0.004345
v -0.029792 0.133096 -0.002252
v 0.031748 0.132879 -0.002252
v 0.031748 0.132879 -0.004345
v -0.016519 0.160103 -0.004722
v -0.030152 0.030316 -0.002138
v 0.018666 0.159980 -0.001883
v 0.031385 0.030099 -0.004426
vt 0.212248 0.820682
vt 0.212248 0.820682
vt 0.212248 0.820682
vt 0.212248 0.820682
vt 0.848753 0.513549
vt 0.848753 0.513549
vt 0.848753 0.513549
vt 0.212248 0.820682
vt 0.212248 0.820682
vt 0.848753 0.513549
vt 0.212248 0.820682
vt 0.212248 0.820682
vt 0.212248 0.820682
vt 0.212248 0.820682
vt 0.212248 0.820682
vt 0.212248 0.820682
vt 0.212248 0.820682
vt 0.212248 0.820682
vt 0.212248 0.820682
vt 0.212248 0.820682
vt 0.212248 0.820682
vt 0.212248 0.820682
vt 0.212248 0.820682
vt 0.848753 0.513549
vt 0.848753 0.513549
vt 0.848753 0.513549
vt 0.848753 0.513549
vt 0.848753 0.513549
vt 0.848753 0.513549
vt 0.212248 0.820682
vt 0.848753 0.513549
vt 0.848753 0.513549
vt 0.848753 0.513549
vt 0.212248 0.820682
vt 0.212248 0.820682
vt 0.212248 0.820682
vt 0.212248 0.820682
vt 0.212248 0.820682
vt 0.212248 0.820682
vt 0.212248 0.820682
vt 0.546602 0.546602
vt 0.546602 0.546602
vt 0.546602 0.546602
vt 0.546602 0.546602
vt 0.212248 0.820682
vt 0.546602 0.546602
vt 0.546602 0.546602
vt 0.546602 0.546602
vt 0.546602 0.546602
vt 0.546602 0.546602
vt 0.546602 0.546602
vt 0.546602 0.546602
vt 0.546602 0.546602
vt 0.546602 0.546602
vt 0.546602 0.546602
vt 0.546602 0.546602
vt 0.546602 0.546602
vt 0.546602 0.546602
vt 0.546602 0.546602
vt 0.546602 0.546602
vt 0.546602 0.546602
vt 0.546602 0.546602
vt 0.546602 0.546602
vt 0.546602 0.546602
vt 0.546602 0.546602
vn -0.0035 -1.0000 0.0002
vn -0.5072 0.0800 0.8581
vn 0.6951 -0.0504 -0.7172
vn -0.5072 0.0797 -0.8582
vn 0.6951 -0.0501 0.7172
vn -0.6954 -0.0455 -0.7172
vn -0.7071 0.0023 -0.7071
vn -0.6954 -0.0452 0.7172
vn 0.7071 -0.0026 -0.7071
vn 0.7071 -0.0024 0.7071
vn 0.7074 -0.0047 0.7068
vn 0.7063 0.0502 0.7061
vn 0.7063 0.0500 -0.7061
vn -0.7071 0.0024 -0.7071
vn -0.7071 0.0026 0.7071
vn 0.4804 -0.2229 -0.8483
vn 0.4804 -0.2226 0.8484
vn -0.7060 0.0549 -0.7061
vn -0.7060 0.0552 0.7061
vn 0.5077 0.0764 0.8581
vn 0.5077 0.0761 -0.8582
vn -0.4819 -0.2195 -0.8483
vn -0.4819 -0.2192 0.8483
vn 0.7074 -0.0049 -0.7068
vn -0.7074 0.0003 0.7068
vn -0.7074 0.0001 -0.7068
vn -0.9820 -0.1891 0.0000
vn -0.9426 0.3339 -0.0001
vn 0.9806 -0.1960 0.0000
vn 0.9449 0.3272 -0.0001
vn -0.0619 0.0008 0.9981
vn 0.0028 1.0000 -0.0002
vn -0.0804 0.0244 -0.9965
vn 0.0042 1.0000 -0.0002
vn 0.9006 0.4347 -0.0001
vn 0.0805 0.0239 -0.9965
vn 0.3376 -0.9413 0.0002
vn -0.8975 0.4411 -0.0001
vn 1.0000 -0.0035 0.0000
vn -1.0000 0.0035 0.0000
vn 0.0805 0.0242 0.9965
vn -0.0619 0.0005 -0.9981
vn 0.0619 0.0001 -0.9981
vn -0.0804 0.0248 0.9965
vn 0.0619 0.0004 0.9981
vn -0.3442 -0.9389 0.0002
usemtl Low_Poly_Image_Texture.028
s off
f 1/1/1 2/2/1 4/3/1 3/4/1
f 20/5/2 18/6/2 5/7/2
f 7/8/3 33/9/3 2/2/3 1/1/3
f 20/5/4 5/7/4 19/10/4
f 6/11/5 4/3/5 2/2/5 33/9/5
f 3/4/6 28/12/6 7/8/6 1/1/6
f 8/13/7 23/14/7 24/15/7
f 3/4/8 4/3/8 6/11/8 28/12/8
f 11/16/9 13/17/9 9/18/9 23/14/9
f 10/19/10 22/20/10 9/18/10 13/17/10
f 6/11/11 33/9/11 32/21/11
f 22/20/10 6/11/10 32/21/10 36/22/10 29/23/10
f 14/24/12 10/25/12 13/26/12 17/27/12
f 15/28/13 17/27/13 13/26/13 11/29/13
f 8/13/14 12/30/14 11/16/14 23/14/14
f 8/13/15 22/20/15 10/19/15 12/30/15
f 19/10/16 21/31/16 17/27/16 15/28/16
f 18/6/17 14/24/17 17/27/17 21/31/17
f 12/32/18 16/33/18 15/28/18 11/29/18
f 12/32/19 10/25/19 14/24/19 16/33/19
f 5/7/20 18/6/20 21/31/20
f 5/7/21 21/31/21 19/10/21
f 16/33/22 20/5/22 19/10/22 15/28/22
f 16/33/23 14/24/23 18/6/23 20/5/23
f 33/9/24 7/8/24 31/34/24
f 23/14/9 9/18/9 30/35/9
f 22/20/15 8/13/15 25/36/15
f 27/37/14 34/38/14 24/15/14 23/14/14 7/8/14
f 23/14/9 30/35/9 37/39/9 31/34/9 7/8/9
f 9/18/10 22/20/10 29/23/10
f 28/12/25 6/11/25 26/40/25
f 7/8/26 28/12/26 27/37/26
f 24/15/27 25/36/27 8/13/27
f 26/40/28 27/37/28 28/12/28
f 29/23/29 30/35/29 9/18/29
f 31/34/30 32/21/30 33/9/30
f 26/41/31 35/42/31 43/43/31 47/44/31
f 26/40/15 6/11/15 22/20/15 25/36/15 35/45/15
f 25/46/32 24/47/32 46/48/32 38/49/32
f 24/47/33 34/50/33 42/51/33 46/48/33
f 30/52/34 29/53/34 48/54/34 40/55/34
f 48/54/35 44/56/35 45/57/35 40/55/35
f 37/58/36 30/52/36 40/55/36 45/57/36
f 27/59/37 26/41/37 47/44/37 39/60/37
f 46/48/38 42/51/38 43/43/38 38/49/38
f 44/56/39 41/61/39 49/62/39 45/57/39
f 42/51/40 39/60/40 47/44/40 43/43/40
f 29/53/41 36/63/41 44/56/41 48/54/41
f 34/50/42 27/59/42 39/60/42 42/51/42
f 31/64/43 37/58/43 45/57/43 49/62/43
f 35/42/44 25/46/44 38/49/44 43/43/44
f 36/63/45 32/65/45 41/61/45 44/56/45
f 32/65/46 31/64/46 49/62/46 41/61/46
