# Blender v2.80 (sub 74) OBJ File: 'untitled.blend'
# www.blender.org
mtllib Cutlass.mtl
o Cutlass_Cube.023
v -0.002674 0.035575 -0.015302
v 0.015596 0.034784 -0.003320
v -0.020773 0.037779 -0.003320
v -0.002674 0.035579 0.008663
v -0.004454 0.170389 -0.020713
v 0.024880 0.176517 -0.003343
v -0.029363 0.171412 -0.003342
v -0.004454 0.170395 0.014030
v -0.026644 0.034418 -0.003320
v 0.001334 0.028358 -0.023632
v 0.001334 0.028365 0.016995
v -0.028931 0.010572 -0.003316
v -0.002348 -0.010554 -0.023527
v -0.002348 -0.010547 0.016902
v -0.004906 0.209671 0.009933
v -0.023941 0.209352 -0.003348
v -0.004906 0.209668 -0.016629
v 0.020288 0.207640 -0.003348
v -0.002913 0.230228 0.014808
v -0.002913 0.230222 -0.021510
v -0.001951 0.264814 0.006585
v -0.001742 0.264856 -0.013316
v 0.031480 0.260693 -0.003387
v 0.105019 0.056307 -0.015900
v -0.020473 0.710138 -0.009692
v 0.035642 0.720726 -0.003597
v -0.020418 0.710141 0.002819
v -0.044487 0.883650 -0.001253
v -0.044504 0.883650 -0.005596
v 0.002239 0.885047 -0.003473
v -0.034324 0.232740 -0.031087
v 0.031645 0.228173 -0.003351
v -0.031285 0.236673 -0.003352
v -0.034075 0.232851 0.024777
v 0.070257 0.212533 -0.033824
v 0.070569 0.212392 0.026861
v 0.074734 0.212778 -0.003343
v 0.076788 0.245852 0.006645
v 0.077177 0.245336 -0.014560
v 0.123035 0.180197 -0.018194
v 0.122997 0.180337 0.010324
v 0.092503 0.170351 0.033965
v 0.084919 0.081059 -0.031049
v 0.084925 0.081083 0.024568
v 0.092540 0.170689 -0.040264
v -0.090865 0.239771 -0.003342
v -0.040471 0.704916 -0.009685
v -0.040464 0.704918 0.002869
v -0.030314 0.266974 0.006422
v -0.030344 0.266988 -0.013100
v -0.059076 0.882817 -0.001231
v -0.096611 1.051301 -0.003504
v -0.059085 0.882816 -0.005581
v 0.031693 0.009227 0.001040
v 0.031642 0.009159 -0.007791
v 0.026045 0.022687 0.006516
v 0.026066 0.022773 -0.013044
v 0.013228 0.035958 -0.003320
v 0.105008 0.056295 0.008295
vt 0.842160 0.800493
vt 0.842160 0.800493
vt 0.842160 0.800493
vt 0.848753 0.513549
vt 0.848753 0.513549
vt 0.848753 0.513549
vt 0.848753 0.513549
vt 0.848753 0.513549
vt 0.848753 0.513549
vt 0.848753 0.513549
vt 0.848753 0.513549
vt 0.848753 0.513549
vt 0.848753 0.513549
vt 0.848753 0.513549
vt 0.848753 0.513549
vt 0.848753 0.513549
vt 0.848753 0.513549
vt 0.848753 0.513549
vt 0.848753 0.513549
vt 0.848753 0.513549
vt 0.848753 0.513549
vt 0.848753 0.513549
vt 0.212248 0.820682
vt 0.212248 0.820682
vt 0.212248 0.820682
vt 0.212248 0.820682
vt 0.212248 0.820682
vt 0.212248 0.820682
vt 0.212248 0.820682
vt 0.212248 0.820682
vt 0.212248 0.820682
vt 0.212248 0.820682
vt 0.842160 0.800493
vt 0.842160 0.800493
vt 0.842160 0.800493
vt 0.842160 0.800493
vt 0.842160 0.800493
vt 0.842160 0.800493
vt 0.842160 0.800493
vt 0.842160 0.800493
vt 0.842160 0.800493
vt 0.842160 0.800493
vt 0.842160 0.800493
vt 0.212248 0.820682
vt 0.212248 0.820682
vt 0.212248 0.820682
vt 0.212248 0.820682
vt 0.212248 0.820682
vt 0.212248 0.820682
vt 0.848753 0.513549
vt 0.848753 0.513549
vt 0.842160 0.800493
vt 0.842160 0.800493
vt 0.842160 0.800493
vt 0.848753 0.513549
vt 0.848753 0.513549
vt 0.842160 0.800493
vt 0.842160 0.800493
vt 0.842160 0.800493
vt 0.848753 0.513549
vt 0.848753 0.513549
vt 0.848753 0.513549
vt 0.848753 0.513549
vt 0.848753 0.513549
vt 0.848753 0.513549
vt 0.842160 0.800493
vt 0.842160 0.800493
vt 0.842160 0.800493
vt 0.848753 0.513549
vt 0.848753 0.513549
vt 0.848753 0.513549
vt 0.842160 0.800493
vt 0.842160 0.800493
vt 0.848753 0.513549
vt 0.848753 0.513549
vt 0.848753 0.513549
vt 0.848753 0.513549
vt 0.842160 0.800493
vt 0.842160 0.800493
vt 0.842160 0.800493
vt 0.842160 0.800493
vt 0.842160 0.800493
vn -0.6221 -0.7829 0.0001
vn 0.4834 0.3851 0.7861
vn 0.2184 0.9082 0.3570
vn -0.0514 -0.9889 -0.1395
vn 0.0767 0.0255 -0.9967
vn 0.0466 0.0279 0.9985
vn 0.0446 0.0263 -0.9987
vn 0.0751 0.9972 0.0017
vn 0.0896 0.4647 0.8809
vn 0.2194 0.9096 -0.3528
vn -0.5653 -0.0382 0.8240
vn -0.5694 0.0801 0.8181
vn 0.5271 -0.0310 -0.8492
vn -0.5653 -0.0385 -0.8240
vn 0.5271 -0.0307 0.8492
vn -0.3767 0.6131 -0.6944
vn -0.3767 0.6133 0.6942
vn 0.4237 -0.0800 0.9023
vn 0.3830 0.7694 -0.5111
vn -0.5781 0.0536 -0.8142
vn -0.5781 0.0538 0.8142
vn 0.4383 -0.2449 0.8648
vn 0.4834 0.0851 -0.8713
vn -0.5694 0.0799 -0.8182
vn 0.4834 0.0854 0.8713
vn -0.5598 -0.1456 0.8157
vn 0.4383 -0.2452 -0.8647
vn -0.5598 -0.1458 -0.8157
vn -0.0513 -0.9880 0.1457
vn 0.1761 0.0065 -0.9844
vn -0.1251 -0.9803 0.1527
vn -0.4100 0.9121 0.0013
vn -0.1293 -0.9808 -0.1461
vn -0.0051 0.0078 -1.0000
vn 0.5404 -0.8414 0.0008
vn 0.0007 0.0137 0.9999
vn -0.0046 0.0228 -0.9997
vn -0.9997 -0.0231 0.0012
vn -0.9217 -0.3880 -0.0022
vn 0.3147 0.9490 -0.0173
vn 0.0797 0.4569 -0.8859
vn 0.5947 -0.1139 0.7958
vn -0.8706 -0.4755 -0.1261
vn 0.8174 0.5760 -0.0006
vn -0.8665 -0.4816 0.1311
vn 0.9896 -0.1437 0.0013
vn 0.4658 0.3723 -0.8027
vn -0.2284 0.4733 -0.8507
vn -0.9964 0.0846 -0.0000
vn -0.3359 -0.9401 -0.0583
vn -0.3359 -0.9402 0.0569
vn -0.1890 -0.9490 -0.2522
vn -0.1768 -0.9353 -0.3064
vn -0.1876 -0.9499 0.2498
vn -0.1718 -0.9323 0.3184
vn -0.9761 -0.2174 0.0021
vn -0.0029 0.0082 1.0000
vn -0.9946 -0.1041 0.0010
vn -0.0019 0.0230 0.9997
vn -0.0017 0.0119 -0.9999
vn 0.3837 0.7692 0.5111
vn 0.5020 -0.8649 0.0008
vn 0.7179 0.6961 0.0039
vn 0.9237 0.3830 -0.0007
vn 0.4232 -0.0768 -0.9028
vn 0.5667 -0.1120 -0.8163
vn 0.1535 -0.4084 0.8998
vn 0.1343 -0.3937 -0.9094
vn -0.7039 0.7103 0.0005
vn -0.2299 0.4806 0.8463
vn 0.1796 0.0072 0.9837
vn 0.0808 0.0254 0.9964
usemtl Low_Poly_Image_Texture.011
s off
f 12/1/1 13/2/1 14/3/1
f 38/4/2 36/5/2 42/6/2 41/7/2
f 23/8/3 21/9/3 38/4/3
f 33/10/4 34/11/4 46/12/4
f 25/13/5 29/14/5 30/15/5 26/16/5
f 30/15/6 52/17/6 28/18/6
f 30/15/7 29/14/7 52/17/7
f 22/19/8 50/20/8 49/21/8 21/9/8
f 38/4/9 21/9/9 34/11/9 36/5/9
f 22/19/10 23/8/10 39/22/10
f 7/23/11 3/24/11 4/25/11 8/26/11
f 16/27/12 7/23/12 8/26/12 15/28/12
f 1/29/13 5/30/13 6/31/13 2/32/13
f 1/29/14 3/24/14 7/23/14 5/30/14
f 6/31/15 8/26/15 4/25/15 2/32/15
f 9/33/16 3/34/16 1/35/16 10/36/16
f 9/33/17 11/37/17 4/38/17 3/34/17
f 14/3/18 54/39/18 56/40/18 11/37/18
f 58/41/19 57/42/19 10/36/19 1/35/19 2/43/19
f 12/1/20 9/33/20 10/36/20 13/2/20
f 12/1/21 14/3/21 11/37/21 9/33/21
f 19/44/22 15/28/22 18/45/22 32/46/22
f 18/45/23 6/31/23 5/30/23 17/47/23
f 16/27/24 17/47/24 5/30/24 7/23/24
f 18/45/25 15/28/25 8/26/25 6/31/25
f 33/48/26 16/27/26 15/28/26 19/44/26
f 20/49/27 32/46/27 18/45/27 17/47/27
f 33/48/28 20/49/28 17/47/28 16/27/28
f 31/50/29 33/10/29 46/12/29
f 25/13/30 26/16/30 23/8/30 22/19/30
f 33/10/31 31/50/31 20/51/31
f 49/52/32 50/53/32 46/54/32
f 33/10/33 19/55/33 34/11/33
f 22/19/34 50/20/34 47/56/34 25/13/34
f 59/57/35 54/39/35 55/58/35 24/59/35
f 28/18/36 52/17/36 51/60/36
f 29/14/37 25/13/37 47/56/37 53/61/37
f 47/56/38 50/20/38 49/21/38 48/62/38
f 37/63/39 45/64/39 42/6/39
f 38/4/40 39/22/40 23/8/40
f 39/22/41 35/65/41 31/50/41 22/19/41
f 59/57/42 41/66/42 42/67/42 44/68/42
f 36/5/43 37/63/43 42/6/43
f 39/22/44 38/4/44 41/7/44 40/69/44
f 45/64/45 37/63/45 35/65/45
f 41/7/46 59/70/46 24/71/46 40/69/46
f 35/65/47 39/22/47 40/69/47 45/64/47
f 22/72/48 31/73/48 46/54/48 50/53/48
f 42/6/49 45/64/49 43/74/49 44/75/49
f 37/63/50 36/5/50 32/76/50
f 37/63/51 32/76/51 35/65/51
f 32/76/52 36/5/52 19/55/52
f 36/5/53 34/11/53 19/55/53
f 32/76/54 20/51/54 35/65/54
f 31/50/55 35/65/55 20/51/55
f 53/61/56 51/60/56 52/17/56
f 21/9/57 27/77/57 48/62/57 49/21/57
f 47/56/58 48/62/58 51/60/58 53/61/58
f 27/77/59 28/18/59 51/60/59 48/62/59
f 52/17/60 29/14/60 53/61/60
f 56/40/61 58/41/61 2/43/61 4/38/61 11/37/61
f 13/2/62 55/58/62 54/39/62 14/3/62
f 56/40/63 57/42/63 58/41/63
f 55/58/64 57/42/64 56/40/64 54/39/64
f 13/2/65 10/36/65 57/42/65 55/58/65
f 40/78/66 24/59/66 43/79/66 45/80/66
f 44/68/67 56/40/67 54/39/67 59/57/67
f 24/59/68 55/58/68 57/42/68 43/79/68
f 43/79/69 57/42/69 56/40/69 44/68/69
f 46/54/70 34/81/70 21/82/70 49/52/70
f 27/77/71 21/9/71 23/8/71 26/16/71
f 26/16/72 30/15/72 28/18/72 27/77/72
