# Blender v2.80 (sub 74) OBJ File: 'untitled.blend'
# www.blender.org
mtllib Rock.mtl
o Rock_Sphere
v -0.070319 0.022599 -0.000980
v -0.043408 0.084343 0.031185
v -0.057007 0.064688 -0.011885
v -0.026970 0.056606 0.058173
v -0.001377 0.106924 -0.009304
v 0.024837 0.062894 -0.062588
v 0.025336 0.096403 0.033162
v 0.041821 0.076960 -0.007421
v 0.066825 0.052630 0.012726
v 0.083529 0.019447 -0.024664
v 0.016368 0.053572 0.068735
v 0.026143 -0.001401 0.035806
v 0.034685 -0.005970 -0.034696
v -0.027239 -0.011571 0.023764
v -0.039318 0.024456 -0.043479
vt 0.234189 0.193088
vt 0.234189 0.193088
vt 0.234189 0.193088
vt 0.234189 0.193088
vt 0.234189 0.193088
vt 0.234189 0.193088
vt 0.234189 0.193088
vt 0.234189 0.193088
vt 0.234189 0.193088
vt 0.234189 0.193088
vt 0.234189 0.193088
vt 0.234189 0.193088
vt 0.234189 0.193088
vt 0.234189 0.193088
vt 0.234189 0.193088
vn -0.8220 0.0635 0.5659
vn -0.5904 0.7883 -0.1733
vn -0.1353 0.6486 0.7490
vn 0.5422 0.7590 -0.3604
vn 0.5675 0.8083 -0.1567
vn 0.7147 0.6980 -0.0441
vn 0.7623 0.6141 -0.2045
vn 0.7413 -0.3022 0.5993
vn -0.3058 -0.8610 -0.4064
vn -0.8057 0.1037 -0.5832
vn -0.9324 0.3319 0.1429
vn -0.4158 0.5900 -0.6921
vn -0.1721 0.9255 0.3375
vn -0.1368 0.6497 0.7478
vn 0.6937 0.3686 0.6188
vn 0.6954 0.6155 -0.3710
vn 0.7150 -0.2613 0.6485
vn 0.3434 -0.3100 -0.8866
vn 0.4407 -0.8907 0.1111
vn -0.0913 -0.5236 0.8470
vn 0.1682 -0.9822 0.0840
vn -0.0469 -0.3808 -0.9235
vn -0.2418 -0.4364 0.8666
vn -0.4441 -0.8205 -0.3598
vn -0.6558 -0.3381 0.6750
vn -0.4752 0.4047 -0.7813
usemtl Low_Poly_Image_Texture.030
s off
f 4/1/1 2/2/1 1/3/1
f 3/4/2 2/2/2 5/5/2
f 4/1/3 7/6/3 2/2/3
f 5/5/4 8/7/4 6/8/4
f 7/6/5 8/7/5 5/5/5
f 7/6/6 9/9/6 8/7/6
f 9/9/7 10/10/7 8/7/7
f 12/11/8 10/10/8 9/9/8
f 13/12/9 14/13/9 15/14/9
f 1/3/10 3/4/10 15/14/10
f 1/3/11 2/2/11 3/4/11
f 6/8/12 3/4/12 5/5/12
f 2/2/13 7/6/13 5/5/13
f 4/1/14 11/15/14 7/6/14
f 7/6/15 11/15/15 9/9/15
f 6/8/16 8/7/16 10/10/16
f 11/15/17 12/11/17 9/9/17
f 6/8/18 10/10/18 13/12/18
f 10/10/19 12/11/19 13/12/19
f 12/11/20 11/15/20 14/13/20
f 13/12/21 12/11/21 14/13/21
f 13/12/22 15/14/22 6/8/22
f 11/15/23 4/1/23 14/13/23
f 14/13/24 1/3/24 15/14/24
f 14/13/25 4/1/25 1/3/25
f 15/14/26 3/4/26 6/8/26
