# Blender v2.80 (sub 74) OBJ File: 'untitled.blend'
# www.blender.org
mtllib Scimitar.mtl
o Scimitar_Cube.056
v 0.031987 0.397995 -0.003125
v 0.031987 0.397996 0.003161
v 0.028280 0.378116 -0.003824
v 0.028280 0.378117 0.003866
v -0.027509 0.393949 -0.008069
v -0.027509 0.393952 0.008104
v 0.009531 0.321496 -0.011203
v -0.040124 0.339396 -0.015814
v -0.040124 0.339401 0.015867
v 0.009531 0.321500 0.011262
v 0.003053 0.263781 -0.010431
v -0.047259 0.267918 -0.015800
v -0.047259 0.267923 0.015876
v 0.003053 0.263785 0.010509
v 0.001161 0.201721 -0.010460
v -0.047662 0.203123 -0.015750
v -0.047662 0.203128 0.015848
v 0.001161 0.201724 0.010558
v 0.003462 0.147894 -0.010514
v -0.041759 0.145940 -0.015679
v -0.041759 0.145946 0.015794
v 0.003462 0.147897 0.010629
v 0.011926 0.102778 -0.011039
v -0.030042 0.087714 -0.015350
v -0.030042 0.087719 0.015485
v 0.011926 0.102781 0.011169
v 0.019201 0.084900 -0.014865
v -0.024856 0.070181 -0.018228
v -0.024856 0.070188 0.018369
v 0.019202 0.084904 0.015001
v 0.049759 0.053152 -0.013751
v -0.034058 0.025112 -0.013746
v -0.034058 0.025117 0.013901
v 0.049759 0.053157 0.013896
v 0.040916 0.014161 -0.012310
v -0.003532 -0.000709 -0.012307
v -0.003532 -0.000705 0.012470
v 0.040916 0.014165 0.012468
v -0.069143 0.375983 -0.014916
v -0.069143 0.375988 0.014958
v 0.054321 0.340956 0.014205
v 0.054321 0.340952 -0.014151
v 0.060208 0.361988 -0.014277
v -0.063210 0.397011 0.013558
v 0.060208 0.361993 0.014324
v -0.063210 0.397006 -0.013523
v -0.113297 0.397552 -0.012687
v -0.113297 0.397556 0.012722
v 0.093475 0.331804 0.011133
v 0.093475 0.331801 -0.011076
v 0.104388 0.340408 -0.012678
v -0.102384 0.406163 0.011121
v 0.104388 0.340412 0.012731
v -0.102384 0.406159 -0.011088
v -0.132999 0.415853 -0.012368
v -0.132999 0.415857 0.012397
v 0.124090 0.322107 -0.012353
v 0.124090 0.322111 0.012412
v -0.142049 0.443104 -0.010374
v -0.142049 0.443107 0.010394
v 0.121493 0.289234 0.009027
v 0.121493 0.289231 -0.008957
v 0.133141 0.294856 -0.010350
v -0.130402 0.448732 0.009001
v 0.133141 0.294860 0.010418
v -0.130402 0.448730 -0.008983
v 0.034094 0.405782 0.000016
v -0.021004 0.415793 -0.007443
v -0.021004 0.415795 0.007473
v 0.051704 0.484793 0.000004
v -0.002624 0.495403 -0.007096
v -0.002624 0.495405 0.007100
v 0.072333 0.623167 -0.000019
v 0.018450 0.629513 -0.006715
v 0.018450 0.629516 0.006675
v 0.078307 0.736753 -0.000037
v 0.025343 0.785747 -0.005714
v 0.025343 0.785749 0.005625
v 0.081958 0.842690 -0.000054
v 0.072503 0.975167 -0.000075
v 0.010692 0.968151 -0.004577
v 0.010692 0.968153 0.004428
v 0.056685 1.095375 -0.000095
v -0.013196 1.081494 -0.003810
v -0.013196 1.081495 0.003625
v 0.026503 1.243587 -0.000118
v -0.054293 1.204319 -0.003300
v -0.054293 1.204320 0.003075
v 0.006017 1.322278 -0.000131
v -0.074965 1.256032 -0.003029
v -0.074965 1.256033 0.002787
v -0.096662 1.300325 -0.000128
v -0.017183 1.394675 -0.000138
v -0.082693 1.384425 -0.000152
v -0.032980 1.431364 -0.000255
v -0.076533 1.425729 -0.000281
v -0.072945 1.530935 -0.000165
v 0.007037 0.038866 0.019780
v 0.006806 0.038782 -0.019630
v 0.017784 0.341041 -0.015973
v -0.037988 0.356369 -0.017500
v -0.037988 0.356375 0.017548
v 0.017784 0.341047 0.016026
v 0.032585 0.376866 -0.015394
v -0.029797 0.394600 0.014817
v 0.032585 0.376871 0.015436
v -0.029797 0.394595 -0.014781
v 0.045012 0.972808 -0.003140
v -0.024120 1.312817 -0.001799
v 0.027886 1.091008 -0.002634
v 0.026560 0.489424 -0.004830
v 0.045960 0.625976 -0.004700
v 0.054625 0.785355 -0.004023
v -0.000722 1.230795 -0.002048
v 0.008115 0.408843 -0.005048
v -0.000722 1.230796 0.001819
v 0.054626 0.785356 0.003936
v 0.045959 0.625977 0.004665
v 0.008117 0.408842 0.005082
v 0.045012 0.972805 0.002994
v 0.027887 1.091007 0.002450
v -0.024120 1.312816 0.001543
v 0.026561 0.489426 0.004840
v -0.068287 1.311584 0.002176
v -0.056909 1.428267 0.001407
v -0.068287 1.311583 -0.002438
v -0.056210 1.420774 -0.001825
v -0.056819 1.428279 -0.001703
vt 0.848753 0.513549
vt 0.848753 0.513549
vt 0.848753 0.513549
vt 0.848753 0.513549
vt 0.848753 0.513549
vt 0.848753 0.513549
vt 0.848753 0.513549
vt 0.848753 0.513549
vt 0.842160 0.800493
vt 0.842160 0.800493
vt 0.842160 0.800493
vt 0.842160 0.800493
vt 0.212248 0.820682
vt 0.212248 0.820682
vt 0.212248 0.820682
vt 0.212248 0.820682
vt 0.212248 0.820682
vt 0.212248 0.820682
vt 0.212248 0.820682
vt 0.212248 0.820682
vt 0.212248 0.820682
vt 0.212248 0.820682
vt 0.212248 0.820682
vt 0.212248 0.820682
vt 0.212248 0.820682
vt 0.212248 0.820682
vt 0.212248 0.820682
vt 0.212248 0.820682
vt 0.212248 0.820682
vt 0.212248 0.820682
vt 0.212248 0.820682
vt 0.212248 0.820682
vt 0.212248 0.820682
vt 0.212248 0.820682
vt 0.212248 0.820682
vt 0.212248 0.820682
vt 0.212248 0.820682
vt 0.212248 0.820682
vt 0.842160 0.800493
vt 0.842160 0.800493
vt 0.842160 0.800493
vt 0.842160 0.800493
vt 0.212248 0.820682
vt 0.212248 0.820682
vt 0.842160 0.800493
vt 0.842160 0.800493
vt 0.842160 0.800493
vt 0.842160 0.800493
vt 0.842160 0.800493
vt 0.842160 0.800493
vt 0.842160 0.800493
vt 0.842160 0.800493
vt 0.842160 0.800493
vt 0.842160 0.800493
vt 0.842160 0.800493
vt 0.842160 0.800493
vt 0.842160 0.800493
vt 0.842160 0.800493
vt 0.842160 0.800493
vt 0.842160 0.800493
vt 0.842160 0.800493
vt 0.842160 0.800493
vt 0.842160 0.800493
vt 0.842160 0.800493
vt 0.842160 0.800493
vt 0.842160 0.800493
vt 0.842160 0.800493
vt 0.842160 0.800493
vt 0.842160 0.800493
vt 0.842160 0.800493
vt 0.842160 0.800493
vt 0.842160 0.800493
vt 0.842160 0.800493
vt 0.842160 0.800493
vt 0.842160 0.800493
vt 0.842160 0.800493
vt 0.842160 0.800493
vt 0.842160 0.800493
vt 0.842160 0.800493
vt 0.842160 0.800493
vt 0.842160 0.800493
vt 0.842160 0.800493
vt 0.842160 0.800493
vt 0.842160 0.800493
vt 0.842160 0.800493
vt 0.842160 0.800493
vt 0.842160 0.800493
vt 0.842160 0.800493
vt 0.842160 0.800493
vt 0.848753 0.513549
vt 0.848753 0.513549
vt 0.848753 0.513549
vt 0.848753 0.513549
vt 0.848753 0.513549
vt 0.848753 0.513549
vt 0.848753 0.513549
vt 0.848753 0.513549
vt 0.848753 0.513549
vt 0.848753 0.513549
vt 0.848753 0.513549
vt 0.848753 0.513549
vt 0.848753 0.513549
vt 0.848753 0.513549
vt 0.848753 0.513549
vt 0.848753 0.513549
vt 0.848753 0.513549
vt 0.848753 0.513549
vt 0.848753 0.513549
vt 0.848753 0.513549
vt 0.848753 0.513549
vt 0.848753 0.513549
vt 0.848753 0.513549
vt 0.848753 0.513549
vt 0.848753 0.513549
vt 0.848753 0.513549
vt 0.848753 0.513549
vt 0.848753 0.513549
vt 0.848753 0.513549
vt 0.848753 0.513549
vt 0.848753 0.513549
vt 0.848753 0.513549
vt 0.848753 0.513549
vt 0.848753 0.513549
vt 0.848753 0.513549
vt 0.848753 0.513549
vt 0.848753 0.513549
vt 0.848753 0.513549
vt 0.848753 0.513549
vt 0.848753 0.513549
vt 0.848753 0.513549
vt 0.848753 0.513549
vt 0.848753 0.513549
vt 0.848753 0.513549
vt 0.848753 0.513549
vt 0.848753 0.513549
vt 0.848753 0.513549
vt 0.848753 0.513549
vt 0.848753 0.513549
vt 0.842160 0.800493
vt 0.848753 0.513549
vn -0.9831 0.1833 -0.0000
vn -0.2171 -0.3140 0.9243
vn -0.0815 -0.0199 0.9965
vn -0.0814 -0.0201 -0.9965
vn -0.0853 -0.9964 0.0002
vn -0.0023 0.1747 0.9846
vn -0.9213 0.3890 -0.0001
vn 0.9922 -0.1249 0.0000
vn -0.9938 0.1115 -0.0000
vn 1.0000 -0.0062 0.0000
vn 0.9951 -0.0993 0.0000
vn -0.0958 0.0161 0.9953
vn -0.1068 0.0021 0.9943
vn -0.9995 0.0305 -0.0000
vn -0.1104 -0.0080 0.9939
vn -0.9991 -0.0427 0.0000
vn 0.9947 0.1027 -0.0000
vn -0.9829 -0.1844 0.0000
vn 0.9803 0.1973 -0.0000
vn -0.1037 -0.0222 0.9944
vn -0.0207 -0.1930 0.9810
vn -0.7205 -0.6935 0.0001
vn -0.9262 -0.3770 0.0001
vn 0.9589 0.2836 -0.0000
vn 0.0878 0.1582 -0.9835
vn 0.9798 -0.2000 0.0000
vn 0.1168 0.0743 -0.9904
vn -0.1114 -0.0725 0.9911
vn -0.3173 0.9483 -0.0002
vn -0.1590 0.0725 0.9846
vn -0.9752 0.2212 -0.0000
vn 0.6458 0.7635 -0.0001
vn -0.2275 -0.9738 0.0002
vn 0.2276 0.9738 -0.0002
vn 0.0025 1.0000 -0.0002
vn 0.5328 0.8463 -0.0001
vn -0.4508 -0.8926 0.0001
vn -0.0744 -0.9947 -0.0704
vn -0.0744 -0.9947 0.0707
vn -0.4702 -0.8789 0.0803
vn -0.0246 -0.1524 0.9880
vn -0.4389 -0.8985 0.0001
vn -0.0722 0.0259 -0.9971
vn -0.0722 0.0262 0.9970
vn 0.0436 -0.0783 0.9960
vn 0.0436 -0.0786 -0.9959
vn 0.6806 0.7327 -0.0001
vn 0.0713 0.0944 0.9930
vn -0.0246 -0.1527 -0.9880
vn 0.0334 0.1414 -0.9894
vn 0.0334 0.1417 0.9893
vn 0.4389 0.8985 -0.0001
vn 0.0720 0.0965 -0.9927
vn -0.8353 -0.5498 0.0001
vn -0.6806 -0.7327 0.0001
vn -0.0713 -0.0941 0.9930
vn -0.0713 -0.0944 -0.9930
vn 0.0713 0.0941 -0.9930
vn 0.4349 -0.9005 0.0001
vn -0.4349 0.9005 -0.0001
vn 0.0720 0.0968 0.9927
vn 0.9490 0.3152 -0.0001
vn -0.9490 -0.3152 0.0001
vn -0.0720 -0.0965 0.9927
vn -0.0720 -0.0968 -0.9927
vn 0.8353 0.5498 -0.0001
vn 0.9744 -0.2250 0.0000
vn -0.0826 -0.0046 -0.9966
vn -0.9653 0.2613 -0.0000
vn 0.9584 -0.2854 0.0000
vn -0.1780 0.0255 0.9837
vn -0.1841 0.0403 0.9821
vn -0.0765 0.0137 -0.9970
vn -0.0652 -0.0024 -0.9979
vn -0.0736 0.0088 -0.9972
vn 0.9879 -0.1552 0.0000
vn 0.9990 -0.0441 0.0000
vn -0.1642 0.0064 0.9864
vn 0.9968 0.0801 -0.0000
vn -0.1550 0.0055 0.9879
vn -0.0972 -0.0155 0.9951
vn -0.1169 -0.0096 0.9931
vn -0.0484 -0.0090 -0.9988
vn -0.0218 -0.0103 -0.9997
vn -0.0324 -0.0116 -0.9994
vn 0.9785 0.2062 -0.0000
vn 0.9286 0.3712 -0.0001
vn 0.9483 0.3173 -0.0000
vn -0.0743 -0.0171 0.9971
vn -0.0141 -0.0093 -0.9999
vn -0.0561 -0.0168 0.9983
vn -0.0163 -0.0096 -0.9998
vn -0.0142 -0.0052 -0.9999
vn 0.8980 0.4399 -0.0001
vn -0.0522 -0.0158 0.9985
vn -0.1283 0.9917 0.0001
vn 0.0737 -0.0082 0.9972
vn -0.0652 -0.0313 -0.9974
vn -0.0660 -0.0256 -0.9975
vn -0.0664 0.1984 -0.9779
vn -0.1120 -0.0733 -0.9910
vn -0.0456 -0.0912 -0.9948
vn -0.1598 0.0723 -0.9845
vn 0.1177 0.0745 0.9903
vn 0.0883 0.1592 0.9833
vn -0.0664 0.1987 0.9778
vn -0.0457 -0.0905 0.9948
vn 0.0330 -0.0770 0.9965
vn -0.0186 -0.0391 -0.9991
vn -0.0186 -0.0387 0.9991
vn -0.0439 0.0080 0.9990
vn -0.0439 0.0077 -0.9990
vn 0.0330 -0.0774 -0.9965
vn -0.2733 -0.9619 0.0016
vn -0.4702 -0.8789 -0.0800
vn 0.0849 -0.0145 0.9963
vn -0.0142 -0.0089 0.9999
vn -0.0164 -0.0093 0.9998
vn -0.0218 -0.0100 0.9997
vn -0.0485 -0.0086 0.9988
vn -0.0325 -0.0112 0.9994
vn -0.0653 -0.0021 0.9979
vn -0.0766 0.0141 0.9970
vn -0.0738 0.0091 0.9972
vn -0.0827 -0.0044 0.9966
vn -0.2733 -0.9619 -0.0013
vn -0.0516 -0.0161 -0.9985
vn -0.0562 -0.0171 -0.9983
vn -0.0974 -0.0158 -0.9951
vn -0.0744 -0.0175 -0.9971
vn -0.1170 -0.0100 -0.9931
vn -0.1551 0.0052 -0.9879
vn -0.1781 0.0252 -0.9837
vn -0.1643 0.0061 -0.9864
vn -0.1842 0.0400 -0.9821
vn -0.2172 -0.3145 -0.9241
vn -0.0207 -0.1933 -0.9809
vn -0.1037 -0.0225 -0.9944
vn -0.1104 -0.0083 -0.9938
vn -0.1068 0.0018 -0.9943
vn -0.0958 0.0158 -0.9953
vn -0.0023 0.1744 -0.9847
vn 0.0861 -0.0148 -0.9962
vn 0.0895 -0.0217 -0.9958
vn 0.0878 -0.0162 -0.9960
vn -0.0576 -0.0215 0.9981
vn -0.0144 -0.0040 0.9999
vn 0.0895 -0.0213 0.9958
vn 0.0724 -0.0036 0.9974
vn 0.0860 -0.0018 -0.9963
vn -0.0575 -0.0240 0.9981
usemtl Low_Poly_Image_Texture.031
s off
f 3/1/1 4/2/1 2/3/1 1/4/1
f 1/4/2 67/5/2 115/6/2
f 3/1/3 1/4/3 5/7/3
f 2/3/4 4/2/4 6/8/4
f 5/9/5 6/10/5 44/11/5 46/12/5
f 100/13/6 101/14/6 8/15/6 7/16/6
f 103/17/7 100/13/7 7/16/7 10/18/7
f 101/14/8 102/19/8 9/20/8 8/15/8
f 10/18/9 7/16/9 11/21/9 14/22/9
f 12/23/10 13/24/10 17/25/10 16/26/10
f 8/15/11 9/20/11 13/24/11 12/23/11
f 7/16/12 8/15/12 12/23/12 11/21/12
f 11/21/13 12/23/13 16/26/13 15/27/13
f 14/22/14 11/21/14 15/27/14 18/28/14
f 15/27/15 16/26/15 20/29/15 19/30/15
f 18/28/16 15/27/16 19/30/16 22/31/16
f 16/26/17 17/25/17 21/32/17 20/29/17
f 22/31/18 19/30/18 23/33/18 26/34/18
f 20/29/19 21/32/19 25/35/19 24/36/19
f 19/30/20 20/29/20 24/36/20 23/33/20
f 23/33/21 24/36/21 28/37/21 27/38/21
f 30/39/22 27/40/22 31/41/22 34/42/22
f 26/34/23 23/33/23 27/38/23 30/43/23
f 24/36/24 25/35/24 29/44/24 28/37/24
f 33/45/25 98/46/25 37/47/25
f 28/48/26 29/49/26 33/45/26 32/50/26
f 29/49/27 98/46/27 33/45/27
f 27/40/28 99/51/28 31/41/28
f 36/52/29 37/47/29 38/53/29 35/54/29
f 31/41/30 99/51/30 35/54/30
f 34/42/31 31/41/31 35/54/31 38/53/31
f 32/50/32 33/45/32 37/47/32 36/52/32
f 46/12/33 44/11/33 52/55/33 54/56/33
f 42/57/34 41/58/34 49/59/34 50/60/34
f 100/61/35 103/62/35 41/58/35 42/57/35
f 102/63/36 101/64/36 39/65/36 40/66/36
f 4/67/37 3/68/37 43/69/37 45/70/37
f 5/9/38 46/12/38 107/71/38
f 44/11/39 6/10/39 105/72/39
f 4/67/40 45/70/40 106/73/40
f 39/65/41 54/56/41 47/74/41
f 45/70/42 43/69/42 51/75/42 53/76/42
f 41/58/43 45/70/43 49/59/43
f 43/69/44 42/57/44 50/60/44
f 39/65/45 46/12/45 54/56/45
f 44/11/46 40/66/46 52/55/46
f 48/77/47 47/74/47 55/78/47 56/79/47
f 51/75/48 50/60/48 57/80/48
f 52/55/49 40/66/49 48/77/49
f 49/59/50 45/70/50 53/76/50
f 43/69/51 50/60/51 51/75/51
f 40/66/52 39/65/52 47/74/52 48/77/52
f 49/59/53 58/81/53 65/82/53 61/83/53
f 54/56/54 52/55/54 64/84/54 66/85/54
f 53/76/55 51/75/55 57/80/55 58/81/55
f 47/74/56 54/56/56 55/78/56
f 52/55/57 48/77/57 56/79/57
f 49/59/58 53/76/58 58/81/58
f 66/85/59 64/84/59 60/86/59 59/87/59
f 62/88/60 61/83/60 65/82/60 63/89/60
f 57/80/61 50/60/61 62/88/61 63/89/61
f 56/79/62 55/78/62 59/87/62 60/86/62
f 58/81/63 57/80/63 63/89/63 65/82/63
f 55/78/64 54/56/64 66/85/64 59/87/64
f 52/55/65 56/79/65 60/86/65 64/84/65
f 50/60/66 49/59/66 61/83/66 62/88/66
f 69/90/67 68/91/67 71/92/67 72/93/67
f 2/3/68 6/8/68 69/90/68 119/94/68
f 1/4/69 2/3/69 67/5/69
f 6/8/70 5/7/70 68/91/70 69/90/70
f 111/95/71 70/96/71 73/97/71 112/98/71
f 115/6/72 67/5/72 70/96/72 111/95/72
f 119/94/73 69/90/73 72/93/73 123/99/73
f 118/100/74 75/101/74 78/102/74 117/103/74
f 123/99/75 72/93/75 75/101/75 118/100/75
f 72/93/76 71/92/76 74/104/76 75/101/76
f 75/101/77 74/104/77 77/105/77 78/102/77
f 112/98/78 73/97/78 76/106/78 113/107/78
f 78/102/79 77/105/79 81/108/79 82/109/79
f 113/107/80 76/106/80 79/110/80
f 108/111/81 80/112/81 83/113/81 110/114/81
f 113/107/82 79/110/82 80/112/82 108/111/82
f 117/103/83 78/102/83 82/109/83 120/115/83
f 121/116/84 85/117/84 88/118/84 116/119/84
f 120/115/85 82/109/85 85/117/85 121/116/85
f 82/109/86 81/108/86 84/120/86 85/117/86
f 88/118/87 87/121/87 90/122/87 91/123/87
f 85/117/88 84/120/88 87/121/88 88/118/88
f 110/114/89 83/113/89 86/124/89 114/125/89
f 122/126/90 91/123/90 124/127/90
f 114/125/91 86/124/91 89/128/91 109/129/91
f 116/119/92 88/118/92 91/123/92 122/126/92
f 122/126/93 124/127/93 125/130/93
f 91/123/94 90/122/94 92/131/94
f 109/129/95 89/128/95 93/132/95 127/133/95
f 95/134/96 128/135/96 96/136/96 125/130/96
f 94/137/97 127/133/97 128/135/97 96/136/97
f 93/132/98 125/130/98 95/134/98
f 95/134/99 125/130/99 97/138/99
f 37/47/100 98/46/100 38/53/100
f 98/46/101 30/39/101 34/42/101
f 98/46/102 29/49/102 30/39/102
f 38/53/103 98/46/103 34/42/103
f 99/51/104 28/48/104 32/50/104
f 36/52/105 99/51/105 32/50/105
f 35/54/106 99/51/106 36/52/106
f 28/48/107 99/51/107 27/40/107
f 101/64/108 107/71/108 46/12/108 39/65/108
f 106/73/109 103/62/109 102/63/109 105/72/109
f 100/61/110 104/139/110 107/71/110 101/64/110
f 104/139/111 100/61/111 42/57/111 43/69/111
f 103/62/112 106/73/112 45/70/112 41/58/112
f 105/72/113 102/63/113 40/66/113 44/11/113
f 3/68/114 5/9/114 107/71/114 104/139/114
f 43/69/115 3/68/115 104/139/115
f 92/131/116 126/140/116 127/133/116 94/137/116
f 90/122/117 109/129/117 126/140/117
f 87/121/118 114/125/118 109/129/118 90/122/118
f 84/120/119 110/114/119 114/125/119 87/121/119
f 77/105/120 113/107/120 108/111/120 81/108/120
f 81/108/121 108/111/121 110/114/121 84/120/121
f 74/104/122 112/98/122 113/107/122 77/105/122
f 68/91/123 115/6/123 111/95/123 71/92/123
f 71/92/124 111/95/124 112/98/124 74/104/124
f 5/7/125 1/4/125 115/6/125 68/91/125
f 6/10/126 4/67/126 106/73/126 105/72/126
f 89/128/127 122/126/127 125/130/127 93/132/127
f 86/124/128 116/119/128 122/126/128 89/128/128
f 80/112/129 120/115/129 121/116/129 83/113/129
f 83/113/130 121/116/130 116/119/130 86/124/130
f 79/110/131 117/103/131 120/115/131 80/112/131
f 76/106/132 117/103/132 79/110/132
f 70/96/133 123/99/133 118/100/133 73/97/133
f 73/97/134 118/100/134 117/103/134 76/106/134
f 67/5/135 119/94/135 123/99/135 70/96/135
f 2/3/136 119/94/136 67/5/136
f 25/35/137 26/34/137 30/43/137 29/44/137
f 21/32/138 22/31/138 26/34/138 25/35/138
f 17/25/139 18/28/139 22/31/139 21/32/139
f 13/24/140 14/22/140 18/28/140 17/25/140
f 9/20/141 10/18/141 14/22/141 13/24/141
f 102/19/142 103/17/142 10/18/142 9/20/142
f 125/130/143 124/127/143 92/131/143 94/137/143
f 124/127/144 91/123/144 92/131/144
f 125/130/145 94/137/145 96/136/145
f 128/135/146 127/133/146 93/132/146 95/134/146
f 127/133/147 126/140/147 109/129/147
f 126/140/148 92/131/148 90/122/148
f 128/135/149 97/138/149 96/136/149
f 97/138/150 125/130/150 96/136/150
f 97/138/151 128/135/151 95/134/151
