# Blender v2.80 (sub 74) OBJ File: 'untitled.blend'
# www.blender.org
mtllib Wizard_Staff.mtl
o Wizard_Staff_Cylinder.023
v 0.025131 0.004104 -0.005559
v 0.052449 2.298641 0.002394
v 0.014505 0.004142 0.019440
v 0.026831 2.325536 0.033940
v -0.013703 0.004241 0.017653
v -0.021167 2.370244 0.054520
v -0.019992 0.004264 -0.009595
v 0.004787 0.004176 -0.023521
v 0.005524 2.332129 -0.043853
v 0.044217 1.730079 -0.008523
v 0.027260 1.730139 0.031043
v -0.015687 1.730290 0.027330
v -0.025273 1.730324 -0.014887
v 0.011750 1.730194 -0.036809
v 0.066077 2.206798 -0.015403
v -0.029238 2.283369 0.044030
v -0.040524 2.211311 -0.026498
v 0.013900 2.175140 -0.046393
v 0.036986 2.084878 0.038262
v -0.022483 2.085846 0.035951
v -0.034504 2.085931 -0.020483
v 0.014043 2.085752 -0.047330
v 0.056978 2.085584 -0.011951
v 0.089200 2.308782 0.010127
v 0.061596 2.362225 0.016124
v 0.068689 2.359963 0.056265
v 0.090345 2.314133 0.032355
v 0.030853 2.309098 0.059486
v 0.017466 2.380193 0.049416
v -0.036445 2.409845 0.049378
v -0.049666 2.385548 -0.007467
v -0.020332 2.363671 -0.079175
v -0.020720 2.291113 -0.088023
v 0.035419 2.308914 -0.072202
v 0.034747 2.338045 -0.054989
v 0.070767 2.350795 -0.053862
v 0.075907 2.326204 -0.066621
v 0.116229 2.419900 -0.021841
v 0.087688 2.443475 -0.000249
v 0.128929 2.421992 0.007875
v 0.093896 2.444385 0.026347
v 0.016778 2.410953 0.061500
v 0.040987 2.389671 0.081530
v 0.023642 2.390212 0.097808
v -0.001717 2.411053 0.071053
v -0.035858 2.490061 0.049472
v -0.064560 2.421411 0.085291
v -0.085862 2.439718 0.058649
v -0.048516 2.490694 0.022931
v -0.047000 2.403417 -0.027689
v -0.069083 2.389784 -0.052476
v -0.031138 2.411137 -0.067633
v 0.040055 2.404708 -0.060498
v 0.042287 2.401047 -0.090174
v 0.070905 2.398762 -0.095819
v 0.067198 2.404248 -0.062525
v 0.051380 2.554099 -0.052147
v 0.045594 2.551839 -0.042569
v 0.057992 2.560543 -0.041582
v 0.048376 2.556064 -0.030260
v 0.024893 2.420457 0.061937
v 0.038618 2.419081 0.072230
v 0.029898 2.423229 0.083214
v 0.015334 2.424185 0.069974
v -0.014460 2.641825 0.021305
v -0.018927 2.643561 0.032207
v -0.032967 2.642877 0.024647
v -0.026862 2.641369 0.015700
v -0.033757 2.513880 -0.041232
v -0.043769 2.521848 -0.048567
v -0.031474 2.512018 -0.050233
v 0.012004 2.452624 -0.040257
v 0.007450 2.460321 -0.054411
v 0.019410 2.470211 -0.059113
v 0.026086 2.461311 -0.043869
v 0.015865 2.408919 -0.001575
v 0.016350 2.546717 -0.001575
v 0.008861 2.454401 0.039609
v 0.057434 2.454231 0.004145
v 0.021970 2.454355 -0.044429
v -0.026604 2.454526 -0.008965
vt 0.212248 0.820682
vt 0.212248 0.820682
vt 0.212248 0.820682
vt 0.212248 0.820682
vt 0.212248 0.820682
vt 0.212248 0.820682
vt 0.212248 0.820682
vt 0.212248 0.820682
vt 0.212248 0.820682
vt 0.212248 0.820682
vt 0.212248 0.820682
vt 0.212248 0.820682
vt 0.212248 0.820682
vt 0.212248 0.820682
vt 0.212248 0.820682
vt 0.212248 0.820682
vt 0.212248 0.820682
vt 0.212248 0.820682
vt 0.212248 0.820682
vt 0.212248 0.820682
vt 0.212248 0.820682
vt 0.212248 0.820682
vt 0.212248 0.820682
vt 0.212248 0.820682
vt 0.212248 0.820682
vt 0.212248 0.820682
vt 0.212248 0.820682
vt 0.212248 0.820682
vt 0.212248 0.820682
vt 0.212248 0.820682
vt 0.212248 0.820682
vt 0.212248 0.820682
vt 0.212248 0.820682
vt 0.212248 0.820682
vt 0.212248 0.820682
vt 0.212248 0.820682
vt 0.212248 0.820682
vt 0.212248 0.820682
vt 0.212248 0.820682
vt 0.212248 0.820682
vt 0.212248 0.820682
vt 0.212248 0.820682
vt 0.212248 0.820682
vt 0.212248 0.820682
vt 0.212248 0.820682
vt 0.212248 0.820682
vt 0.212248 0.820682
vt 0.212248 0.820682
vt 0.212248 0.820682
vt 0.212248 0.820682
vt 0.212248 0.820682
vt 0.212248 0.820682
vt 0.212248 0.820682
vt 0.212248 0.820682
vt 0.212248 0.820682
vt 0.212248 0.820682
vt 0.212248 0.820682
vt 0.212248 0.820682
vt 0.212248 0.820682
vt 0.212248 0.820682
vt 0.212248 0.820682
vt 0.212248 0.820682
vt 0.212248 0.820682
vt 0.212248 0.820682
vt 0.212248 0.820682
vt 0.212248 0.820682
vt 0.212248 0.820682
vt 0.212248 0.820682
vt 0.212248 0.820682
vt 0.212248 0.820682
vt 0.212248 0.820682
vt 0.212248 0.820682
vt 0.212248 0.820682
vt 0.212248 0.820682
vt 0.212248 0.820682
vt 0.072718 0.494151
vt 0.072718 0.494151
vt 0.072718 0.494151
vt 0.072718 0.494151
vt 0.072718 0.494151
vt 0.072718 0.494151
vn 0.1437 -0.4123 0.8997
vn 0.7888 0.0091 0.6146
vn 0.9234 -0.3280 -0.1991
vn 0.6504 0.7510 -0.1142
vn -0.5172 -0.0715 -0.8529
vn -0.0035 -1.0000 0.0000
vn 0.6588 -0.0085 -0.7523
vn -0.5018 -0.0044 -0.8650
vn -0.9749 -0.0023 0.2228
vn -0.0771 -0.0059 0.9970
vn 0.9196 -0.0095 0.3928
vn 0.5795 -0.0344 -0.8142
vn -0.4229 -0.0335 -0.9056
vn -0.9785 -0.0400 0.2023
vn -0.0395 -0.0422 0.9983
vn 0.9277 -0.0591 0.3685
vn 0.9244 -0.0313 0.3802
vn -0.0589 -0.0220 0.9980
vn -0.9766 -0.0229 0.2139
vn -0.4951 -0.0245 -0.8685
vn 0.6448 -0.0286 -0.7638
vn 0.1484 0.2007 -0.9684
vn -0.4892 0.3094 -0.8154
vn 0.9741 -0.2256 0.0121
vn -0.6369 0.2492 -0.7296
vn -0.1872 0.2378 -0.9531
vn -0.2084 -0.0978 0.9731
vn -0.4629 -0.0638 0.8841
vn 0.8925 0.3007 -0.3361
vn 0.7215 0.6871 0.0855
vn 0.3436 0.2340 -0.9095
vn -0.5455 -0.4226 -0.7238
vn 0.3308 -0.2298 -0.9153
vn -0.1374 0.7962 0.5892
vn 0.9373 0.0611 0.3430
vn 0.4858 -0.3089 -0.8176
vn -0.7127 0.1406 0.6873
vn 0.8096 0.5870 -0.0082
vn 0.5023 -0.2619 -0.8241
vn -0.7595 0.0849 -0.6449
vn 0.1779 -0.2367 0.9552
vn -0.9188 -0.0285 0.3937
vn -0.9215 0.3386 0.1905
vn -0.8189 -0.3398 0.4626
vn -0.9927 0.0607 -0.1040
vn -0.2928 0.4202 -0.8589
vn -0.8190 -0.2088 -0.5345
vn 0.6138 0.0197 0.7893
vn 0.9508 0.0416 -0.3069
vn 0.0589 -0.2755 -0.9595
vn -0.6942 -0.0027 0.7198
vn 0.9217 0.1617 0.3526
vn -0.8506 0.0679 -0.5213
vn -0.0087 0.1173 0.9931
vn -0.4291 0.1150 -0.8959
vn 0.9871 0.1038 0.1219
vn -0.5600 0.8148 -0.1500
vn 0.2271 0.9574 -0.1781
vn 0.0299 0.9889 -0.1457
vn 0.6242 0.7813 -0.0033
vn -0.3559 0.7490 0.5588
vn 0.7247 0.2065 0.6574
vn -0.4281 0.4538 -0.7816
vn 0.9382 -0.0635 0.3402
vn -0.4706 0.4874 0.7355
vn -0.7352 -0.4703 -0.4881
vn -0.3402 0.1218 -0.9324
vn 0.8350 -0.0303 0.5494
vn 0.8401 0.2829 -0.4627
vn -0.8627 -0.5057 -0.0009
vn -0.5866 0.2907 0.7559
vn -0.9330 -0.2592 0.2498
vn -0.2891 0.3110 -0.9054
vn 0.7751 -0.1812 -0.6052
vn 0.6072 0.5325 0.5897
vn 0.0833 0.7728 0.6291
vn 0.4584 -0.2877 0.8409
vn 0.4189 -0.2565 0.8710
vn 0.4190 -0.0742 0.9050
vn -0.5611 0.1351 -0.8167
vn 0.6942 0.7151 -0.0813
vn -0.7669 0.3124 0.5607
vn 0.4950 -0.5401 0.6806
vn -0.6755 -0.5494 0.4918
vn -0.4886 -0.5630 -0.6665
vn 0.6717 -0.5541 -0.4918
vn 0.7690 0.3069 -0.5607
vn -0.5577 0.3212 -0.7654
vn 0.5636 0.2980 0.7704
usemtl Low_Poly_Image_Texture.035
s off
f 16/1/1 28/2/1 43/3/1 44/4/1
f 16/1/2 30/5/2 46/6/2 47/7/2
f 27/8/3 24/9/3 38/10/3 40/11/3
f 4/12/4 2/13/4 9/14/4 31/15/4 6/16/4
f 24/9/5 25/17/5 39/18/5 38/10/5
f 1/19/6 3/20/6 5/21/6 7/22/6 8/23/6
f 8/23/7 14/24/7 10/25/7 1/19/7
f 7/22/8 13/26/8 14/24/8 8/23/8
f 5/21/9 12/27/9 13/26/9 7/22/9
f 3/20/10 11/28/10 12/27/10 5/21/10
f 1/19/11 10/25/11 11/28/11 3/20/11
f 22/29/12 18/30/12 15/31/12 23/32/12
f 21/33/13 17/34/13 18/30/13 22/29/13
f 20/35/14 16/1/14 17/34/14 21/33/14
f 19/36/15 16/1/15 20/35/15
f 23/32/16 15/31/16 19/36/16
f 10/25/17 23/32/17 19/36/17 11/28/17
f 11/28/18 19/36/18 20/35/18 12/27/18
f 12/27/19 20/35/19 21/33/19 13/26/19
f 13/26/20 21/33/20 22/29/20 14/24/20
f 14/24/21 22/29/21 23/32/21 10/25/21
f 15/31/22 2/13/22 25/17/22 24/9/22
f 42/37/23 25/17/23 29/38/23
f 19/36/24 15/31/24 24/9/24 27/8/24
f 2/13/25 4/12/25 25/17/25
f 4/12/26 6/16/26 29/38/26
f 16/1/27 19/36/27 28/2/27
f 16/1/28 6/16/28 30/5/28
f 6/16/29 31/15/29 30/5/29
f 31/15/30 9/14/30 32/39/30
f 34/40/31 33/41/31 32/39/31 35/42/31
f 18/30/32 17/34/32 33/41/32
f 33/41/33 34/40/33 18/30/33
f 9/14/34 2/13/34 36/43/34 35/42/34
f 2/13/35 15/31/35 37/44/35 36/43/35
f 15/31/36 18/30/36 34/40/36 37/44/36
f 51/45/37 50/46/37 69/47/37 70/48/37
f 56/49/38 55/50/38 74/51/38 75/52/38
f 43/3/39 42/37/39 61/53/39 62/54/39
f 49/55/40 48/56/40 67/57/40 68/58/40
f 53/59/41 56/49/41 75/52/41 72/60/41
f 17/34/42 31/15/42 50/46/42 51/45/42
f 25/17/43 26/61/43 41/62/43 39/18/43
f 17/34/44 16/1/44 47/7/44 48/56/44
f 34/40/45 35/42/45 53/59/45 54/63/45
f 29/38/46 6/16/46 45/64/46 42/37/46
f 33/41/47 17/34/47 51/45/47
f 26/61/48 27/8/48 40/11/48 41/62/48
f 30/5/49 31/15/49 49/55/49 46/6/49
f 37/44/50 34/40/50 54/63/50 55/50/50
f 6/16/51 16/1/51 44/4/51 45/64/51
f 31/15/52 32/39/52 52/65/52 50/46/52
f 31/15/53 17/34/53 48/56/53 49/55/53
f 35/42/54 36/43/54 56/49/54 53/59/54
f 32/39/55 33/41/55 51/45/55 52/65/55
f 36/43/56 37/44/56 55/50/56 56/49/56
f 57/66/57 58/67/57 60/68/57 59/69/57
f 62/54/58 61/53/58 64/70/58 63/71/58
f 66/72/59 65/73/59 68/58/59 67/57/59
f 70/48/60 69/47/60 71/74/60
f 73/75/61 72/60/61 75/52/61 74/51/61
f 44/4/62 43/3/62 62/54/62 63/71/62
f 42/37/63 45/64/63 64/70/63 61/53/63
f 50/46/64 52/65/64 71/74/64 69/47/64
f 45/64/65 44/4/65 63/71/65 64/70/65
f 38/10/66 39/18/66 58/67/66 57/66/66
f 52/65/67 51/45/67 70/48/67 71/74/67
f 47/7/68 46/6/68 65/73/68 66/72/68
f 40/11/69 38/10/69 57/66/69 59/69/69
f 54/63/70 53/59/70 72/60/70 73/75/70
f 48/56/71 47/7/71 66/72/71 67/57/71
f 39/18/72 41/62/72 60/68/72 58/67/72
f 55/50/73 54/63/73 73/75/73 74/51/73
f 46/6/74 49/55/74 68/58/74 65/73/74
f 41/62/75 40/11/75 59/69/75 60/68/75
f 32/39/76 9/14/76 35/42/76
f 43/3/77 28/2/77 26/61/77
f 26/61/78 28/2/78 27/8/78
f 19/36/79 27/8/79 28/2/79
f 25/17/80 4/12/80 29/38/80
f 25/17/81 42/37/81 43/3/81 26/61/81
f 77/76/82 81/77/82 78/78/82
f 78/78/83 76/79/83 79/80/83
f 81/77/84 76/79/84 78/78/84
f 80/81/85 76/79/85 81/77/85
f 79/80/86 76/79/86 80/81/86
f 77/76/87 79/80/87 80/81/87
f 77/76/88 80/81/88 81/77/88
f 77/76/89 78/78/89 79/80/89
